<?xml version="1.0" encoding="utf-8"?>
<!-- Generator: Adobe Illustrator 27.2.0, SVG Export Plug-In . SVG Version: 6.00 Build 0)  -->
<svg version="1.1" id="Layer_2" xmlns="http://www.w3.org/2000/svg" xmlns:xlink="http://www.w3.org/1999/xlink" x="0px" y="0px"
	 viewBox="0 0 841.89 595.28" style="enable-background:new 0 0 841.89 595.28;" xml:space="preserve">
<style type="text/css">
	.st0{fill:url(#SVGID_1_);}
	.st1{fill:url(#SVGID_00000150816669344866623720000009744560355784805806_);}
	.st2{fill:url(#SVGID_00000140004841709774084800000011484918092082655390_);}
	.st3{fill:url(#SVGID_00000134971632161973522820000004977837041948933810_);}
	.st4{fill:url(#SVGID_00000005232126406390471250000003170320040291878580_);}
	.st5{fill:url(#SVGID_00000180354656769201390870000016738442571036737684_);}
	.st6{fill:url(#SVGID_00000168807138673193912100000008312805446733222534_);}
	.st7{fill:url(#SVGID_00000092442036253927086420000001295716761951061141_);}
	.st8{fill:url(#SVGID_00000069386381411318997990000005544715689530264455_);}
	.st9{fill:url(#SVGID_00000022561035531627108660000008434866318854193062_);}
</style>
<g>
	<linearGradient id="SVGID_1_" gradientUnits="userSpaceOnUse" x1="370.4449" y1="65.7756" x2="438.4449" y2="65.7756">
		<stop  offset="0.0168" style="stop-color:#536B1E"/>
		<stop  offset="1" style="stop-color:#00DBFF"/>
	</linearGradient>
	<path class="st0" d="M405.94,112.78h-3c-17.95,0-32.5-14.55-32.5-32.5v-27.5c0-18.78,15.22-34,34-34h0c18.78,0,34,15.22,34,34v27.5
		C438.44,98.22,423.89,112.78,405.94,112.78z"/>
	
		<linearGradient id="SVGID_00000154404217014867126380000013126392647268046733_" gradientUnits="userSpaceOnUse" x1="370.4449" y1="480.7756" x2="438.4449" y2="480.7756">
		<stop  offset="0.0168" style="stop-color:#536B1E"/>
		<stop  offset="1" style="stop-color:#00DBFF"/>
	</linearGradient>
	<path style="fill:url(#SVGID_00000154404217014867126380000013126392647268046733_);" d="M402.94,433.78h3
		c17.95,0,32.5,14.55,32.5,32.5v27.5c0,18.78-15.22,34-34,34h0c-18.78,0-34-15.22-34-34v-27.5
		C370.44,448.33,385,433.78,402.94,433.78z"/>
	<g>
		
			<linearGradient id="SVGID_00000040571535291266832900000018288152794422651287_" gradientUnits="userSpaceOnUse" x1="277.4449" y1="273.2756" x2="531.4449" y2="273.2756">
			<stop  offset="0.0168" style="stop-color:#536B1E"/>
			<stop  offset="1" style="stop-color:#00DBFF"/>
		</linearGradient>
		<circle style="fill:url(#SVGID_00000040571535291266832900000018288152794422651287_);" cx="404.44" cy="273.28" r="127"/>
		
			<linearGradient id="SVGID_00000103266065101104471540000003580171233798719913_" gradientUnits="userSpaceOnUse" x1="335.6266" y1="273.2756" x2="473.2632" y2="273.2756">
			<stop  offset="0.0168" style="stop-color:#536B1E"/>
			<stop  offset="0.2424" style="stop-color:#738918"/>
			<stop  offset="0.7346" style="stop-color:#C4D409"/>
			<stop  offset="1" style="stop-color:#F2FF00"/>
		</linearGradient>
		<circle style="fill:url(#SVGID_00000103266065101104471540000003580171233798719913_);" cx="404.44" cy="273.28" r="68.82"/>
		
			<linearGradient id="SVGID_00000003071050647670544760000018279079464284403878_" gradientUnits="userSpaceOnUse" x1="507.3559" y1="126.8616" x2="594.362" y2="126.8616">
			<stop  offset="0.0168" style="stop-color:#536B1E"/>
			<stop  offset="1" style="stop-color:#00DBFF"/>
		</linearGradient>
		<path style="fill:url(#SVGID_00000003071050647670544760000018279079464284403878_);" d="M519,160.85l-2.12-2.12
			c-12.69-12.69-12.69-33.27,0-45.96l19.45-19.45c13.28-13.28,34.81-13.28,48.08,0l0,0c13.28,13.28,13.28,34.81,0,48.08
			l-19.45,19.45C552.27,173.54,531.69,173.54,519,160.85z"/>
		
			<linearGradient id="SVGID_00000132802901951140071570000007245854512877662108_" gradientUnits="userSpaceOnUse" x1="564.9449" y1="273.2756" x2="658.9449" y2="273.2756">
			<stop  offset="0.0168" style="stop-color:#536B1E"/>
			<stop  offset="1" style="stop-color:#00DBFF"/>
		</linearGradient>
		<path style="fill:url(#SVGID_00000132802901951140071570000007245854512877662108_);" d="M564.94,274.78v-3
			c0-17.95,14.55-32.5,32.5-32.5h27.5c18.78,0,34,15.22,34,34v0c0,18.78-15.22,34-34,34h-27.5
			C579.5,307.28,564.94,292.72,564.94,274.78z"/>
		
			<linearGradient id="SVGID_00000075851710311520701470000000256697290609038253_" gradientUnits="userSpaceOnUse" x1="507.3559" y1="419.6896" x2="594.362" y2="419.6896">
			<stop  offset="0.0168" style="stop-color:#536B1E"/>
			<stop  offset="1" style="stop-color:#00DBFF"/>
		</linearGradient>
		<path style="fill:url(#SVGID_00000075851710311520701470000000256697290609038253_);" d="M516.87,387.83l2.12-2.12
			c12.69-12.69,33.27-12.69,45.96,0l19.45,19.45c13.28,13.28,13.28,34.81,0,48.08l0,0c-13.28,13.28-34.81,13.28-48.08,0
			l-19.45-19.45C504.18,421.1,504.18,400.52,516.87,387.83z"/>
		
			<linearGradient id="SVGID_00000124848485893148776960000017036564495046900114_" gradientUnits="userSpaceOnUse" x1="214.5279" y1="419.6896" x2="301.534" y2="419.6896">
			<stop  offset="0.0168" style="stop-color:#536B1E"/>
			<stop  offset="1" style="stop-color:#00DBFF"/>
		</linearGradient>
		<path style="fill:url(#SVGID_00000124848485893148776960000017036564495046900114_);" d="M289.89,385.71l2.12,2.12
			c12.69,12.69,12.69,33.27,0,45.96l-19.45,19.45c-13.28,13.28-34.81,13.28-48.08,0l0,0c-13.28-13.28-13.28-34.81,0-48.08
			l19.45-19.45C256.62,373.01,277.2,373.01,289.89,385.71z"/>
		
			<linearGradient id="SVGID_00000014596766848880272790000013131961780971404475_" gradientUnits="userSpaceOnUse" x1="149.9449" y1="273.2756" x2="243.9449" y2="273.2756">
			<stop  offset="0.0168" style="stop-color:#536B1E"/>
			<stop  offset="1" style="stop-color:#00DBFF"/>
		</linearGradient>
		<path style="fill:url(#SVGID_00000014596766848880272790000013131961780971404475_);" d="M243.94,271.78v3
			c0,17.95-14.55,32.5-32.5,32.5h-27.5c-18.78,0-34-15.22-34-34v0c0-18.78,15.22-34,34-34h27.5
			C229.39,239.28,243.94,253.83,243.94,271.78z"/>
		
			<linearGradient id="SVGID_00000001663338238912638460000017306591022129819271_" gradientUnits="userSpaceOnUse" x1="214.5279" y1="126.8616" x2="301.534" y2="126.8616">
			<stop  offset="0.0168" style="stop-color:#536B1E"/>
			<stop  offset="1" style="stop-color:#00DBFF"/>
		</linearGradient>
		<path style="fill:url(#SVGID_00000001663338238912638460000017306591022129819271_);" d="M292.01,158.72l-2.12,2.12
			c-12.69,12.69-33.27,12.69-45.96,0l-19.45-19.45c-13.28-13.28-13.28-34.81,0-48.08l0,0c13.28-13.28,34.81-13.28,48.08,0
			l19.45,19.45C304.71,125.45,304.71,146.03,292.01,158.72z"/>
	</g>
</g>
</svg>
